<svg width="50" height="50" viewBox="17 17 50 50" fill="none" xmlns="http://www.w3.org/2000/svg">
<path d="M66.0609 34.3174C64.0584 31.7037 57.9378 24.5517 48.8542 21.4624C47.332 20.9446 45.818 20.6818 44.3543 20.6818C38.2976 20.6818 34.8083 25.0655 34.3045 25.7448C32.7851 25.796 30.3058 26.2557 28.1553 27.064C32.6291 20.477 38.184 17 44.2505 17C46.1541 17 48.0956 17.3436 50.0214 18.0199C55.6136 19.9858 62.8318 24.406 66.0609 34.3174Z" fill="#00ADFF" style="fill:#00ADFF;fill:color(display-p3 0.0000 0.6784 1.0000);fill-opacity:1;"/>
<path d="M48.7223 49.8391C47.474 49.8391 46.2322 49.6717 45.0254 49.34C49.6036 45.7675 52.2211 40.7113 52.2211 35.4091C52.2211 30.5243 51.0363 26.8967 48.2796 23.4108C50.7185 24.1678 51.9736 24.8619 53.9692 26.2548C55.2391 29.2741 55.7577 31.9311 55.7577 35.4092C55.7577 40.6661 53.6386 45.7715 49.7881 49.793C49.4358 49.8205 49.0805 49.8391 48.7223 49.8391Z" fill="#00ADFF" style="fill:#00ADFF;fill:color(display-p3 0.0000 0.6784 1.0000);fill-opacity:1;"/>
<path d="M39.7549 67C37.8512 67 35.9098 66.6564 33.984 65.9801C28.3923 64.0152 21.1734 59.596 17.9443 49.6826C19.9468 52.2963 26.0679 59.4494 35.151 62.5385C36.6733 63.0563 38.1868 63.3181 39.65 63.3181C45.7032 63.3181 49.197 58.9344 49.7003 58.2561C51.2206 58.2039 53.6999 57.7442 55.8495 56.9359C51.376 63.5228 45.821 67 39.7549 67Z" fill="#00ADFF" style="fill:#00ADFF;fill:color(display-p3 0.0000 0.6784 1.0000);fill-opacity:1;"/>
<path d="M35.7188 60.5892C33.2779 59.8311 32.0228 59.1371 30.0297 57.7451C28.7597 54.7258 28.2412 52.0688 28.2412 48.5907C28.2412 43.3338 30.3603 38.2294 34.2108 34.2069C34.5631 34.1794 34.9182 34.1606 35.2764 34.1606C36.5217 34.1606 37.7631 34.328 38.9725 34.6598C34.3948 38.2323 31.7779 43.2884 31.7779 48.5906C31.7779 53.4764 32.9621 57.1053 35.7188 60.5892Z" fill="#00ADFF" style="fill:#00ADFF;fill:color(display-p3 0.0000 0.6784 1.0000);fill-opacity:1;"/>
<path d="M49.6777 66.0696C52.2898 64.0653 59.4426 57.9381 62.5291 48.8547C65.5073 40.0902 59.0835 34.9228 58.2486 34.2996C58.1969 32.7787 57.7374 30.2979 56.9295 28.1469C65.6421 34.0693 68.8514 41.8168 65.9698 50.0222C64.0047 55.6168 59.5879 62.8387 49.6777 66.0696Z" fill="#00ADFF" style="fill:#00ADFF;fill:color(display-p3 0.0000 0.6784 1.0000);fill-opacity:1;"/>
<path d="M48.585 55.7647C43.3307 55.7647 38.2282 53.6452 34.2074 49.7931C34.1799 49.4397 34.1611 49.0853 34.1611 48.7269C34.1611 47.4797 34.3289 46.2373 34.66 45.0284C38.2306 49.6081 43.2845 52.2266 48.5849 52.2266C53.4682 52.2266 57.0948 51.0414 60.5782 48.284C59.8214 50.7244 59.1273 51.9796 57.7353 53.9751C54.7168 55.246 52.0616 55.7647 48.585 55.7647Z" fill="#00ADFF" style="fill:#00ADFF;fill:color(display-p3 0.0000 0.6784 1.0000);fill-opacity:1;"/>
<path d="M27.0711 55.853C18.3585 49.9326 15.1487 42.184 18.0303 33.9777C19.9954 28.3831 24.4127 21.1621 34.3209 17.9321C31.7073 19.9345 24.5608 26.0538 21.4714 35.1452C18.4923 43.9136 24.9164 49.0771 25.7519 49.7003C25.8036 51.2212 26.2626 53.702 27.0711 55.853Z" fill="#00ADFF" style="fill:#00ADFF;fill:color(display-p3 0.0000 0.6784 1.0000);fill-opacity:1;"/>
<path d="M49.3416 38.9716C45.7706 34.3919 40.7161 31.7734 35.4162 31.7734C30.5335 31.7734 26.9068 32.9587 23.4238 35.716C24.1806 33.2746 24.8743 32.0194 26.2662 30.025C29.2847 28.7541 31.9402 28.2352 35.4162 28.2352C40.6709 28.2352 45.7741 30.3557 49.7943 34.2079C49.8218 34.5603 49.8405 34.9156 49.8405 35.274C49.8405 36.5213 49.6727 37.7627 49.3416 38.9716Z" fill="#00ADFF" style="fill:#00ADFF;fill:color(display-p3 0.0000 0.6784 1.0000);fill-opacity:1;"/>
</svg>
